<svg id="svg" version="1.1" xmlns="http://www.w3.org/2000/svg" xmlns:xlink="http://www.w3.org/1999/xlink" width="400" height="300" viewBox="0, 0, 400,300"><g id="svgg"><path id="path0" d="M52.000 141.914 L 52.000 169.428 62.650 169.343 C 75.539 169.239,77.481 168.946,82.475 166.350 C 97.643 158.464,100.829 134.451,88.339 122.150 C 81.919 115.827,76.778 114.410,60.250 114.403 L 52.000 114.400 52.000 141.914 M73.100 120.759 C 85.691 123.510,92.403 136.987,87.864 150.400 C 84.458 160.466,78.058 163.946,63.300 163.759 L 58.700 163.700 58.648 142.200 C 58.620 130.375,58.644 120.576,58.702 120.424 C 58.878 119.963,70.716 120.238,73.100 120.759 M207.678 127.598 C 203.647 128.165,199.995 130.385,197.639 133.700 L 197.213 134.300 197.206 131.250 L 197.200 128.200 193.999 128.200 L 190.799 128.200 190.849 156.850 L 190.900 185.500 194.050 185.555 L 197.200 185.610 197.200 174.385 L 197.200 163.160 198.113 164.375 C 203.161 171.091,213.653 172.022,220.386 166.351 C 231.196 157.248,229.616 134.936,217.755 129.222 C 214.714 127.757,210.907 127.143,207.678 127.598 M118.763 127.802 C 106.364 129.774,99.604 144.296,104.806 157.783 C 108.801 168.144,122.514 172.894,134.285 167.993 L 135.800 167.363 135.800 164.380 L 135.800 161.397 134.732 161.999 C 129.948 164.699,121.811 164.912,116.800 162.469 C 113.182 160.704,109.800 155.583,109.800 151.868 L 109.800 151.400 123.891 151.400 L 137.982 151.400 138.141 150.650 C 138.739 147.831,138.169 141.233,137.057 138.100 C 134.434 130.707,126.957 126.498,118.763 127.802 M161.200 127.821 C 153.626 128.983,148.007 134.743,146.394 143.000 C 143.724 156.661,150.450 167.664,162.600 169.509 C 167.476 170.250,173.357 169.586,177.250 167.856 L 178.400 167.345 178.400 164.415 L 178.400 161.484 176.729 162.302 C 171.713 164.758,164.154 164.825,159.400 162.455 C 155.743 160.633,152.417 155.544,152.401 151.750 C 152.400 151.420,153.203 151.400,166.479 151.400 C 179.700 151.400,180.566 151.379,180.699 151.050 C 181.389 149.340,180.889 141.748,179.882 138.663 C 177.320 130.815,169.869 126.491,161.200 127.821 M124.381 133.508 C 129.117 134.624,131.985 138.745,131.997 144.450 L 132.000 146.200 120.900 146.200 L 109.800 146.200 109.800 145.692 C 109.800 137.853,117.064 131.783,124.381 133.508 M166.965 133.504 C 171.730 134.627,174.600 138.698,174.600 144.332 L 174.600 146.200 163.500 146.200 C 152.907 146.200,152.400 146.183,152.400 145.837 C 152.400 137.909,159.641 131.778,166.965 133.504 M211.200 133.413 C 222.624 135.257,224.826 157.664,214.116 163.083 C 208.509 165.920,201.781 163.440,198.803 157.439 C 196.953 153.709,196.667 145.970,198.209 141.367 C 200.046 135.883,205.566 132.503,211.200 133.413 " stroke="none" fill="#fafafa" fill-rule="evenodd"></path><path id="path1" d="M0.000 150.000 L 0.000 300.000 200.000 300.000 L 400.000 300.000 400.000 150.000 L 400.000 0.000 200.000 0.000 L 0.000 0.000 0.000 150.000 M74.807 114.951 C 88.806 117.964,97.226 129.551,96.012 144.131 C 94.934 157.076,87.434 166.306,75.996 168.766 C 72.870 169.438,69.935 169.599,60.750 169.599 L 52.000 169.600 52.000 141.986 L 52.000 114.372 62.450 114.456 C 72.046 114.533,73.056 114.574,74.807 114.951 M249.244 123.900 C 251.115 129.070,254.706 139.279,257.225 146.586 C 259.745 153.894,261.834 159.901,261.869 159.935 C 261.903 159.970,262.904 157.276,264.092 153.949 C 267.024 145.744,271.082 134.756,275.266 123.700 L 278.747 114.500 282.959 114.446 L 287.170 114.392 287.291 115.446 C 287.407 116.456,292.000 168.934,292.000 169.248 C 292.000 169.331,290.523 169.400,288.719 169.400 L 285.438 169.400 285.317 168.450 C 285.135 167.005,283.514 147.898,282.497 135.200 C 282.000 128.985,281.570 123.827,281.542 123.737 C 281.514 123.647,280.785 125.537,279.922 127.937 C 277.560 134.503,270.984 152.339,267.842 160.700 L 265.061 168.100 261.862 168.155 L 258.663 168.210 254.752 157.155 C 252.600 151.075,249.144 141.218,247.070 135.252 C 244.997 129.286,243.247 124.403,243.181 124.402 C 243.116 124.401,243.005 125.772,242.936 127.450 C 242.810 130.471,240.313 166.330,240.088 168.350 L 239.971 169.400 236.686 169.400 C 234.879 169.400,233.400 169.333,233.400 169.250 C 233.399 168.801,237.215 116.330,237.313 115.446 L 237.430 114.392 241.637 114.446 L 245.844 114.500 249.244 123.900 M326.052 114.875 C 339.836 117.547,347.909 127.462,347.894 141.700 C 347.879 155.865,340.326 165.966,327.600 168.840 C 325.812 169.244,325.063 169.274,314.850 169.347 L 304.000 169.425 304.000 141.897 L 304.000 114.368 314.150 114.451 C 322.633 114.521,324.588 114.591,326.052 114.875 M58.800 141.982 L 58.800 163.600 64.686 163.600 C 75.252 163.600,79.258 162.370,83.396 157.857 C 92.986 147.397,90.159 128.502,78.125 122.623 C 74.326 120.768,73.170 120.572,65.350 120.458 L 58.800 120.363 58.800 141.982 M310.600 142.000 L 310.600 163.600 316.850 163.599 C 327.274 163.598,330.924 162.527,335.014 158.268 C 343.430 149.505,343.148 133.423,334.441 125.590 C 329.756 121.374,326.422 120.400,316.674 120.400 L 310.600 120.400 310.600 142.000 M214.995 127.997 C 231.769 132.818,232.095 163.803,215.430 169.284 C 208.821 171.457,202.219 169.676,198.206 164.637 L 197.200 163.374 197.200 174.487 L 197.200 185.600 194.000 185.600 L 190.800 185.600 190.800 156.800 L 190.800 128.000 194.000 128.000 L 197.200 128.000 197.209 131.050 L 197.219 134.100 197.746 133.400 C 201.602 128.284,208.488 126.127,214.995 127.997 M126.795 128.189 C 133.633 130.188,137.814 135.988,138.371 144.248 C 138.524 146.503,138.353 150.991,138.099 151.402 C 138.020 151.530,132.963 151.600,123.915 151.600 L 109.855 151.600 110.037 152.650 C 110.825 157.190,113.334 160.689,117.100 162.498 C 121.548 164.635,129.358 164.514,134.000 162.236 C 134.825 161.831,135.567 161.470,135.650 161.433 C 135.733 161.397,135.800 162.722,135.800 164.379 L 135.800 167.392 135.015 167.792 C 128.392 171.171,117.696 170.509,111.500 166.337 C 101.204 159.403,100.100 140.626,109.484 132.050 C 113.811 128.095,120.993 126.493,126.795 128.189 M169.395 128.189 C 177.812 130.650,182.265 139.165,180.931 150.250 L 180.768 151.600 166.684 151.600 L 152.600 151.600 152.600 152.154 C 152.600 154.935,154.969 159.242,157.578 161.205 C 162.094 164.600,170.790 165.046,176.738 162.187 C 177.639 161.754,178.427 161.400,178.488 161.400 C 178.550 161.400,178.600 162.738,178.600 164.373 L 178.600 167.346 177.150 167.996 C 169.365 171.484,159.006 170.328,152.749 165.273 C 141.378 156.085,144.276 133.491,157.438 128.719 C 160.881 127.471,166.141 127.238,169.395 128.189 M120.000 133.419 C 114.746 133.998,110.857 138.566,109.929 145.250 L 109.825 146.000 120.938 146.000 L 132.052 146.000 131.908 143.973 C 131.377 136.483,127.046 132.644,120.000 133.419 M162.563 133.435 C 157.361 134.059,153.631 138.349,152.636 144.850 L 152.461 146.000 163.560 146.000 L 174.660 146.000 174.539 144.015 C 174.085 136.562,169.591 132.591,162.563 133.435 M206.529 133.717 C 199.998 135.298,196.698 141.579,197.416 151.065 C 198.589 166.549,216.450 169.240,220.211 154.500 C 223.391 142.033,216.351 131.339,206.529 133.717 " stroke="none" fill="#0c0404" fill-rule="evenodd"></path><path id="path2" d="M237.400 114.939 C 237.400 115.526,233.617 167.658,233.510 168.550 L 233.408 169.400 236.704 169.400 C 239.989 169.400,240.000 169.398,240.001 168.950 C 240.001 168.703,240.585 160.364,241.299 150.420 C 242.013 140.475,242.704 130.461,242.835 128.166 C 242.966 125.871,243.135 124.062,243.211 124.146 C 243.288 124.231,245.386 130.150,247.875 137.300 C 250.364 144.450,253.821 154.305,255.559 159.200 L 258.718 168.100 261.824 168.155 L 264.931 168.210 269.849 155.055 C 272.554 147.820,276.283 137.721,278.134 132.614 C 281.281 123.934,281.510 123.380,281.648 124.114 C 281.730 124.546,282.161 129.580,282.608 135.300 C 283.054 141.020,283.865 150.862,284.410 157.170 C 284.954 163.479,285.400 168.812,285.400 169.020 C 285.400 169.378,285.592 169.400,288.681 169.400 L 291.962 169.400 291.873 168.650 C 291.742 167.541,287.200 115.330,287.200 114.932 C 287.200 114.621,286.840 114.597,282.980 114.646 L 278.760 114.700 277.964 116.800 C 273.268 129.190,267.290 145.271,264.891 151.962 C 263.197 156.688,261.869 160.112,261.788 159.962 C 261.711 159.818,259.825 154.390,257.598 147.900 C 254.493 138.849,246.916 117.516,245.896 114.950 C 245.686 114.422,237.400 114.411,237.400 114.939 M304.000 141.987 L 304.000 169.400 313.308 169.400 C 325.040 169.400,327.797 169.106,332.112 167.397 C 342.556 163.260,348.959 151.667,347.832 138.935 C 346.750 126.713,339.413 118.206,327.400 115.246 L 325.300 114.729 314.650 114.652 L 304.000 114.575 304.000 141.987 M322.933 120.414 C 336.767 121.956,344.649 135.918,339.857 150.392 C 338.175 155.473,334.856 159.453,330.500 161.613 C 326.881 163.408,324.279 163.800,315.979 163.800 L 310.600 163.800 310.600 142.000 L 310.600 120.200 315.808 120.200 C 318.672 120.200,321.879 120.296,322.933 120.414 " stroke="none" fill="#3c847c" fill-rule="evenodd"></path><path id="path3" d="M241.491 114.548 C 244.518 114.592,245.730 114.677,245.856 114.854 C 245.983 115.033,246.008 115.018,245.949 114.800 C 245.879 114.545,245.218 114.499,241.583 114.494 L 237.300 114.487 241.491 114.548 M278.730 114.550 C 278.679 114.633,279.911 114.677,281.469 114.648 C 286.767 114.551,287.308 114.481,283.062 114.440 C 280.731 114.418,278.782 114.468,278.730 114.550 M308.664 114.550 C 311.284 114.581,315.514 114.581,318.064 114.550 C 320.614 114.518,318.470 114.492,313.300 114.492 C 308.130 114.492,306.044 114.518,308.664 114.550 M237.246 116.000 C 237.246 116.385,237.288 116.543,237.338 116.350 C 237.388 116.158,237.388 115.843,237.338 115.650 C 237.288 115.458,237.246 115.615,237.246 116.000 M237.046 118.800 C 237.046 119.185,237.088 119.343,237.138 119.150 C 237.188 118.958,237.188 118.642,237.138 118.450 C 237.088 118.258,237.046 118.415,237.046 118.800 M313.350 120.350 C 314.918 120.383,317.483 120.383,319.050 120.350 C 320.618 120.316,319.335 120.288,316.200 120.288 C 313.065 120.288,311.783 120.316,313.350 120.350 M58.696 142.000 C 58.696 153.935,58.721 158.817,58.750 152.850 C 58.779 146.882,58.779 137.117,58.750 131.150 C 58.721 125.182,58.696 130.065,58.696 142.000 M236.846 121.600 C 236.846 121.985,236.888 122.142,236.938 121.950 C 236.988 121.758,236.988 121.442,236.938 121.250 C 236.888 121.058,236.846 121.215,236.846 121.600 M340.300 122.200 C 340.842 122.750,341.330 123.200,341.385 123.200 C 341.440 123.200,341.042 122.750,340.500 122.200 C 339.958 121.650,339.470 121.200,339.415 121.200 C 339.360 121.200,339.758 121.650,340.300 122.200 M236.446 127.000 C 236.446 127.385,236.488 127.543,236.538 127.350 C 236.588 127.158,236.588 126.843,236.538 126.650 C 236.488 126.458,236.446 126.615,236.446 127.000 M281.846 127.200 C 281.846 127.585,281.888 127.743,281.938 127.550 C 281.988 127.358,281.988 127.043,281.938 126.850 C 281.888 126.658,281.846 126.815,281.846 127.200 M242.850 127.900 C 242.853 128.340,242.894 128.496,242.941 128.248 C 242.989 127.999,242.987 127.639,242.937 127.448 C 242.887 127.256,242.848 127.460,242.850 127.900 M236.246 129.800 C 236.246 130.185,236.288 130.343,236.338 130.150 C 236.388 129.958,236.388 129.643,236.338 129.450 C 236.288 129.258,236.246 129.415,236.246 129.800 M242.646 131.200 C 242.646 131.585,242.688 131.743,242.738 131.550 C 242.788 131.358,242.788 131.042,242.738 130.850 C 242.688 130.657,242.646 130.815,242.646 131.200 M282.246 132.200 C 282.246 132.585,282.288 132.743,282.338 132.550 C 282.388 132.358,282.388 132.042,282.338 131.850 C 282.288 131.657,282.246 131.815,282.246 132.200 M236.046 132.600 C 236.046 132.985,236.088 133.143,236.138 132.950 C 236.188 132.758,236.188 132.442,236.138 132.250 C 236.088 132.058,236.046 132.215,236.046 132.600 M242.446 134.200 C 242.446 134.585,242.488 134.743,242.538 134.550 C 242.588 134.358,242.588 134.042,242.538 133.850 C 242.488 133.657,242.446 133.815,242.446 134.200 M235.846 135.200 C 235.846 135.585,235.888 135.743,235.938 135.550 C 235.988 135.358,235.988 135.042,235.938 134.850 C 235.888 134.657,235.846 134.815,235.846 135.200 M242.246 137.000 C 242.246 137.385,242.288 137.542,242.338 137.350 C 242.388 137.157,242.388 136.843,242.338 136.650 C 242.288 136.458,242.246 136.615,242.246 137.000 M282.646 137.200 C 282.646 137.585,282.688 137.743,282.738 137.550 C 282.788 137.358,282.788 137.042,282.738 136.850 C 282.688 136.657,282.646 136.815,282.646 137.200 M235.646 138.000 C 235.646 138.385,235.688 138.542,235.738 138.350 C 235.788 138.157,235.788 137.843,235.738 137.650 C 235.688 137.458,235.646 137.615,235.646 138.000 M347.846 139.000 C 347.846 139.385,347.888 139.542,347.938 139.350 C 347.988 139.157,347.988 138.843,347.938 138.650 C 347.888 138.458,347.846 138.615,347.846 139.000 M341.046 139.400 C 341.046 139.785,341.088 139.942,341.138 139.750 C 341.188 139.558,341.188 139.243,341.138 139.050 C 341.088 138.858,341.046 139.015,341.046 139.400 M96.069 141.500 C 96.069 142.380,96.104 142.715,96.147 142.245 C 96.189 141.774,96.188 141.054,96.145 140.645 C 96.102 140.235,96.068 140.620,96.069 141.500 M235.446 140.800 C 235.446 141.185,235.488 141.343,235.538 141.150 C 235.588 140.958,235.588 140.643,235.538 140.450 C 235.488 140.258,235.446 140.415,235.446 140.800 M241.846 142.600 C 241.846 142.985,241.888 143.143,241.938 142.950 C 241.988 142.758,241.988 142.442,241.938 142.250 C 241.888 142.058,241.846 142.215,241.846 142.600 M235.246 143.600 C 235.246 143.985,235.288 144.143,235.338 143.950 C 235.388 143.758,235.388 143.442,235.338 143.250 C 235.288 143.058,235.246 143.215,235.246 143.600 M347.846 144.200 C 347.846 144.585,347.888 144.743,347.938 144.550 C 347.988 144.358,347.988 144.042,347.938 143.850 C 347.888 143.657,347.846 143.815,347.846 144.200 M241.646 145.400 C 241.646 145.785,241.688 145.942,241.738 145.750 C 241.788 145.558,241.788 145.243,241.738 145.050 C 241.688 144.858,241.646 145.015,241.646 145.400 M181.066 146.700 C 181.067 147.470,181.103 147.760,181.146 147.346 C 181.189 146.931,181.189 146.301,181.144 145.946 C 181.100 145.590,181.065 145.930,181.066 146.700 M197.250 147.500 C 197.253 147.940,197.294 148.096,197.341 147.848 C 197.389 147.599,197.387 147.239,197.337 147.048 C 197.287 146.856,197.248 147.060,197.250 147.500 M220.850 147.500 C 220.853 147.940,220.894 148.096,220.941 147.848 C 220.989 147.599,220.987 147.239,220.937 147.048 C 220.887 146.856,220.848 147.060,220.850 147.500 M227.669 148.500 C 227.669 149.380,227.704 149.715,227.747 149.245 C 227.789 148.774,227.788 148.054,227.745 147.645 C 227.702 147.235,227.668 147.620,227.669 148.500 M241.446 148.200 C 241.446 148.585,241.488 148.743,241.538 148.550 C 241.588 148.358,241.588 148.042,241.538 147.850 C 241.488 147.657,241.446 147.815,241.446 148.200 M234.846 149.000 C 234.846 149.385,234.888 149.542,234.938 149.350 C 234.988 149.157,234.988 148.843,234.938 148.650 C 234.888 148.458,234.846 148.615,234.846 149.000 M220.850 149.500 C 220.853 149.940,220.894 150.096,220.941 149.848 C 220.989 149.599,220.987 149.239,220.937 149.048 C 220.887 148.856,220.848 149.060,220.850 149.500 M197.250 150.100 C 197.253 150.540,197.294 150.696,197.341 150.448 C 197.389 150.199,197.387 149.839,197.337 149.648 C 197.287 149.456,197.248 149.660,197.250 150.100 M241.246 151.000 C 241.246 151.385,241.288 151.542,241.338 151.350 C 241.388 151.157,241.388 150.843,241.338 150.650 C 241.288 150.458,241.246 150.615,241.246 151.000 M234.646 151.800 C 234.646 152.185,234.688 152.343,234.738 152.150 C 234.788 151.958,234.788 151.643,234.738 151.450 C 234.688 151.258,234.646 151.415,234.646 151.800 M241.046 153.800 C 241.046 154.185,241.088 154.343,241.138 154.150 C 241.188 153.958,241.188 153.643,241.138 153.450 C 241.088 153.258,241.046 153.415,241.046 153.800 M234.446 154.600 C 234.446 154.985,234.488 155.143,234.538 154.950 C 234.588 154.758,234.588 154.442,234.538 154.250 C 234.488 154.058,234.446 154.215,234.446 154.600 M240.846 156.600 C 240.846 156.985,240.888 157.143,240.938 156.950 C 240.988 156.758,240.988 156.442,240.938 156.250 C 240.888 156.058,240.846 156.215,240.846 156.600 M334.800 158.500 C 334.314 158.995,333.962 159.400,334.017 159.400 C 334.072 159.400,334.514 158.995,335.000 158.500 C 335.486 158.005,335.838 157.600,335.783 157.600 C 335.728 157.600,335.286 158.005,334.800 158.500 M240.646 159.400 C 240.646 159.785,240.688 159.942,240.738 159.750 C 240.788 159.558,240.788 159.243,240.738 159.050 C 240.688 158.858,240.646 159.015,240.646 159.400 M234.046 160.000 C 234.046 160.385,234.088 160.543,234.138 160.350 C 234.188 160.158,234.188 159.843,234.138 159.650 C 234.088 159.458,234.046 159.615,234.046 160.000 M178.480 164.400 C 178.480 166.105,178.511 166.803,178.549 165.950 C 178.586 165.097,178.586 163.703,178.549 162.850 C 178.511 161.998,178.480 162.695,178.480 164.400 M87.989 162.350 L 87.300 163.100 88.050 162.411 C 88.748 161.769,88.892 161.600,88.739 161.600 C 88.706 161.600,88.368 161.938,87.989 162.350 M240.446 162.200 C 240.446 162.585,240.488 162.743,240.538 162.550 C 240.588 162.358,240.588 162.043,240.538 161.850 C 240.488 161.658,240.446 161.815,240.446 162.200 M233.846 162.800 C 233.846 163.185,233.888 163.343,233.938 163.150 C 233.988 162.958,233.988 162.643,233.938 162.450 C 233.888 162.258,233.846 162.415,233.846 162.800 M313.450 163.750 C 315.072 163.783,317.728 163.783,319.350 163.750 C 320.973 163.716,319.645 163.688,316.400 163.688 C 313.155 163.688,311.828 163.716,313.450 163.750 M124.050 164.146 C 124.463 164.189,125.138 164.189,125.550 164.146 C 125.963 164.103,125.625 164.067,124.800 164.067 C 123.975 164.067,123.638 164.103,124.050 164.146 M166.746 164.144 C 167.101 164.189,167.731 164.189,168.146 164.146 C 168.560 164.103,168.270 164.067,167.500 164.066 C 166.730 164.065,166.390 164.100,166.746 164.144 M240.246 165.000 C 240.246 165.385,240.288 165.543,240.338 165.350 C 240.388 165.158,240.388 164.843,240.338 164.650 C 240.288 164.458,240.246 164.615,240.246 165.000 M233.646 165.600 C 233.646 165.985,233.688 166.143,233.738 165.950 C 233.788 165.758,233.788 165.442,233.738 165.250 C 233.688 165.058,233.646 165.215,233.646 165.600 M240.046 167.800 C 240.046 168.185,240.088 168.343,240.138 168.150 C 240.188 167.958,240.188 167.643,240.138 167.450 C 240.088 167.258,240.046 167.415,240.046 167.800 M69.053 169.544 C 69.357 169.589,69.807 169.588,70.053 169.541 C 70.299 169.493,70.050 169.456,69.500 169.457 C 68.950 169.459,68.749 169.498,69.053 169.544 M122.650 169.938 C 122.843 169.988,123.158 169.988,123.350 169.938 C 123.543 169.888,123.385 169.846,123.000 169.846 C 122.615 169.846,122.458 169.888,122.650 169.938 M124.750 169.941 C 124.998 169.989,125.403 169.989,125.650 169.941 C 125.897 169.893,125.695 169.854,125.200 169.854 C 124.705 169.854,124.503 169.893,124.750 169.941 M165.250 169.938 C 165.442 169.988,165.758 169.988,165.950 169.938 C 166.143 169.888,165.985 169.846,165.600 169.846 C 165.215 169.846,165.058 169.888,165.250 169.938 M167.350 169.941 C 167.597 169.989,168.003 169.989,168.250 169.941 C 168.498 169.893,168.295 169.854,167.800 169.854 C 167.305 169.854,167.103 169.893,167.350 169.941 " stroke="none" fill="#445d5b" fill-rule="evenodd"></path><path id="path4" d="M69.752 114.541 C 70.001 114.589,70.361 114.587,70.552 114.537 C 70.744 114.487,70.540 114.448,70.100 114.450 C 69.660 114.453,69.504 114.494,69.752 114.541 M61.350 120.349 C 62.808 120.384,65.192 120.384,66.650 120.349 C 68.108 120.315,66.915 120.287,64.000 120.287 C 61.085 120.287,59.892 120.315,61.350 120.349 M192.350 128.149 C 193.258 128.186,194.743 128.186,195.650 128.149 C 196.558 128.112,195.815 128.081,194.000 128.081 C 192.185 128.081,191.442 128.112,192.350 128.149 M199.389 131.550 L 198.700 132.300 199.450 131.611 C 200.148 130.969,200.292 130.800,200.139 130.800 C 200.106 130.800,199.768 131.138,199.389 131.550 M108.891 132.650 L 108.100 133.500 108.950 132.709 C 109.418 132.275,109.800 131.892,109.800 131.859 C 109.800 131.708,109.626 131.860,108.891 132.650 M151.487 132.650 L 150.900 133.300 151.550 132.713 C 151.907 132.390,152.200 132.097,152.200 132.063 C 152.200 131.908,152.035 132.044,151.487 132.650 M209.053 133.344 C 209.357 133.389,209.807 133.388,210.053 133.341 C 210.299 133.293,210.050 133.256,209.500 133.257 C 208.950 133.259,208.749 133.298,209.053 133.344 M113.589 136.550 L 112.900 137.300 113.650 136.611 C 114.063 136.232,114.400 135.894,114.400 135.861 C 114.400 135.708,114.231 135.852,113.589 136.550 M200.789 136.950 L 200.100 137.700 200.850 137.011 C 201.548 136.369,201.692 136.200,201.539 136.200 C 201.506 136.200,201.168 136.537,200.789 136.950 M115.364 146.150 C 118.480 146.181,123.520 146.181,126.564 146.150 C 129.609 146.119,127.060 146.093,120.900 146.093 C 114.740 146.093,112.249 146.119,115.364 146.150 M157.964 146.150 C 161.080 146.181,166.120 146.181,169.164 146.150 C 172.209 146.119,169.660 146.093,163.500 146.093 C 157.340 146.093,154.849 146.119,157.964 146.150 M180.600 151.167 C 180.600 151.342,177.070 151.412,166.450 151.449 L 152.300 151.497 166.389 151.550 C 179.715 151.600,181.216 151.550,180.737 151.070 C 180.662 150.995,180.600 151.038,180.600 151.167 M116.865 151.550 C 120.805 151.580,127.195 151.580,131.065 151.550 C 134.934 151.520,131.710 151.495,123.900 151.495 C 116.090 151.495,112.924 151.520,116.865 151.550 M82.800 158.500 C 82.314 158.995,81.962 159.400,82.017 159.400 C 82.072 159.400,82.514 158.995,83.000 158.500 C 83.486 158.005,83.838 157.600,83.783 157.600 C 83.728 157.600,83.286 158.005,82.800 158.500 M201.000 160.700 C 201.373 161.085,201.723 161.400,201.778 161.400 C 201.833 161.400,201.573 161.085,201.200 160.700 C 200.827 160.315,200.477 160.000,200.422 160.000 C 200.367 160.000,200.627 160.315,201.000 160.700 M61.462 163.750 C 62.981 163.784,65.411 163.784,66.862 163.749 C 68.313 163.715,67.070 163.687,64.100 163.688 C 61.130 163.688,59.943 163.716,61.462 163.750 M56.163 169.550 C 58.508 169.582,62.288 169.582,64.563 169.550 C 66.839 169.518,64.920 169.491,60.300 169.492 C 55.680 169.492,53.819 169.518,56.163 169.550 M209.146 170.144 C 209.501 170.189,210.131 170.189,210.546 170.146 C 210.960 170.103,210.670 170.067,209.900 170.066 C 209.130 170.065,208.790 170.100,209.146 170.144 " stroke="none" fill="#5a7c7c" fill-rule="evenodd"></path></g></svg>